<?xml version="1.0" encoding="utf-8"?>
<!-- Generator: Adobe Illustrator 23.0.2, SVG Export Plug-In . SVG Version: 6.00 Build 0)  -->
<svg version="1.1" id="Layer_1" xmlns="http://www.w3.org/2000/svg" xmlns:xlink="http://www.w3.org/1999/xlink" x="0px" y="0px"
	 viewBox="0 0 268.4131 316.5606" enable-background="new 0 0 268.4131 316.5606" xml:space="preserve">
<g>
	<path d="M154.1133,75.5044c0.2646-7.9644,1.5459-12.6587,2.8086-15.2437v15.5694c3.2617,0.8144,6.0312,3.0918,7.417,6.2627
		c2.4297,5.5517-0.1114,12.0517-5.666,14.4844c-0.5743,0.2504-1.1641,0.4946-1.751,0.7407v24.5156
		c0,2.8042,2.2724,5.0757,5.0742,5.0757c2.8027,0,5.0762-2.2715,5.0762-5.0757V84.7803h1.9023v37.0532
		c0,2.8042,2.2725,5.0757,5.0742,5.0757c2.8028,0,5.0762-2.2715,5.0762-5.0757V60.2813c0.2422,0.499,0.4873,1.0712,0.7295,1.7392
		c1.1563,3.207,2.1299,8.4678,2.126,16.6807c0.001,2.2636-0.0723,4.75-0.2315,7.4804c-0.1054,1.8106,1.2764,3.3643,3.0869,3.4698
		c0.0655,0.0039,0.1299,0.0058,0.1944,0.0058c1.7265,0,3.1738-1.3486,3.2763-3.0937c0.1661-2.8457,0.2413-5.459,0.2422-7.8623
		c-0.0175-12.3887-1.9961-19.2451-4.6933-23.3687c-1.3496-2.0464-2.9268-3.3598-4.3828-4.0864
		c-1.4004-0.7061-2.6319-0.8662-3.3721-0.875c-0.0498-0.0029-0.0986-0.0078-0.1484-0.0078h-15.8584
		c-0.0528,0-0.1036,0.0049-0.1573,0.0078c-0.7402,0.0098-1.9687,0.1704-3.3652,0.874c-2.208,1.0957-4.5879,3.4912-6.2529,7.7354
		c-1.6065,4.0586-2.708,9.8491-2.8135,18.4306c0.7871-0.3237,1.5732-0.6489,2.3437-0.9873
		C151.208,75.8286,152.6406,75.5239,154.1133,75.5044z"/>
	<path d="M158.7871,38.7891c0,5.0996,4.1358,9.2353,9.2363,9.2353c5.1016,0,9.2354-4.1357,9.2354-9.2353
		c0-5.1016-4.1338-9.2364-9.2354-9.2364C162.9229,29.5527,158.7871,33.6875,158.7871,38.7891z"/>
	<path d="M31.5186,209.5547c4.9394-4.1065,11.2822-6.5801,18.1923-6.5801c2.2491,0,4.4356,0.2705,6.5362,0.7647V178.666h4.6347
		v26.5918c10.1778,4.3535,17.3291,14.4649,17.3291,26.2168c0,8.9639-4.164,16.9697-10.6543,22.1973h1.4727
		c0.2051,0,0.4063,0.0078,0.6065,0.0205c2.5048,0.0537,6.3408,0.5889,10.6728,2.7783c1.8379,0.916,3.6104,2.0811,5.3018,3.4453
		V110.2476c4.8291-0.4488,11.6464-1.2017,19.5371-2.4175c15.5634-2.4126,35.2324-6.5479,52.3213-14
		c4.0449-1.7725,5.8925-6.4903,4.1201-10.5386c-1.7696-4.0474-6.4864-5.8921-10.5342-4.1196
		c-14.9111,6.542-33.5742,10.584-48.3428,12.8447c-7.3916,1.1406-13.8232,1.8535-18.3808,2.2813
		c-2.2784,0.2128-4.0879,0.3554-5.3194,0.4423c-0.4668,0.0332-0.8418,0.0586-1.1289,0.0772h-0.001H39.2471
		c-0.1035,0-0.2041,0.0117-0.3067,0.0151c-1.7978,0.0152-4.8291,0.395-8.2763,2.1343c-5.3789,2.668-11.1758,8.502-15.2325,18.8398
		c-4.1083,10.3809-6.8662,25.3858-6.8798,48.0459c0.0029,5.8575,0.1894,12.2256,0.5957,19.1602
		c0.25,4.251,3.7754,7.5312,7.9795,7.5312c0.1582,0,0.3173-0.0048,0.4765-0.0146c4.4112-0.2588,7.7764-4.0449,7.5176-8.4531
		c-0.3916-6.6494-0.5674-12.709-0.5674-18.2237c-0.0351-24.2207,3.4961-37.8252,6.9649-44.9228V209.5547z"/>
	<circle cx="58.5635" cy="66.6191" r="22.5"/>
	<polygon points="99.7617,146.4727 254.4346,146.4727 254.4346,0 35.4346,0 35.4346,36.6655 39.4365,36.6655 39.4365,3.999 
		250.4326,3.999 250.4326,142.4688 99.7617,142.4717 	"/>
	<path d="M46.041,253.6719h7.3399c10.6806-1.753,18.83-11.0225,18.83-22.1973c0-12.4277-10.0722-22.5-22.5-22.5
		c-12.4257,0-22.5,10.0723-22.5,22.5C27.2109,242.6494,35.3613,251.9189,46.041,253.6719z"/>
	<path d="M156.7109,231.4746c0-12.4277-10.0722-22.5-22.5-22.5c-12.4257,0-22.5,10.0723-22.5,22.5
		c0,11.1748,8.1504,20.4443,18.8301,22.1973h7.3399C148.5615,251.9189,156.7109,242.6494,156.7109,231.4746z"/>
	<path d="M22.666,283.7891v32.7715h54.0918v-32.7247c0.5928,1.2149,1.1914,2.6094,1.7813,4.2364
		c2.1992,6.0957,4.1201,15.2588,4.8554,28.4883h17.1192c0.9326-16.7842,3.8125-26.961,6.6523-32.7715v32.7715h54.0918V283.834
		c0.5928,1.2168,1.1914,2.6113,1.7813,4.2383c2.1992,6.0957,4.1201,15.2588,4.8554,28.4883h17.1192
		c0.9326-16.7842,3.8125-26.961,6.6523-32.7715v32.7715h54.0918V283.834c0.5928,1.2168,1.1914,2.6113,1.7813,4.2383
		c2.1992,6.0957,4.1201,15.2588,4.8554,28.4883h16.0186c-1.1553-22.6709-5.4981-36.1749-11.1299-44.7813
		c-3.2851-4.9863-7.1269-8.1836-10.6787-9.9551c-3.416-1.7246-6.4209-2.1113-8.2236-2.1347
		c-0.1172-0.0039-0.2325-0.0176-0.3516-0.0176h-15.2051c-1.3437,0.1953-2.7158,0.3008-4.1133,0.3008
		c-1.3974,0-2.7695-0.1055-4.1132-0.3008h-15.2032c-0.1337,0-0.2636,0.0137-0.3964,0.0195
		c-1.8067,0.0274-4.7911,0.4219-8.1827,2.1328c-5.0068,2.4805-10.372,7.709-14.3632,16.752
		c-1.1387-2.5586-2.3692-4.8106-3.669-6.7969c-3.2851-4.9863-7.1269-8.1836-10.6797-9.9551
		c-3.415-1.7246-6.4199-2.1113-8.2226-2.1347c-0.1172-0.0039-0.2325-0.0176-0.3516-0.0176h-38.6348
		c-0.1337,0-0.2636,0.0137-0.3964,0.0195c-1.8067,0.0274-4.7911,0.4219-8.1827,2.1328c-5.0068,2.4805-10.372,7.709-14.3632,16.752
		c-1.1387-2.5586-2.3692-4.8106-3.669-6.7969c-3.2851-4.9863-7.1269-8.1836-10.6797-9.9551
		c-3.415-1.7246-6.4199-2.1113-8.2226-2.1347c-0.1172-0.0039-0.2325-0.0176-0.3516-0.0176H30.3945
		c-0.1347,0-0.2656,0.0137-0.3974,0.0195c-1.8067,0.0274-4.7901,0.4219-8.1817,2.1328c-5.3808,2.666-11.1787,8.5-15.2373,18.8418
		C3.2539,289.0654,0.8164,300.4981,0,316.5606h16.0137C16.9463,299.7764,19.8262,289.6006,22.666,283.7891z"/>
	<circle cx="218.7109" cy="231.4746" r="22.5"/>
	<rect x="106.7617" y="34.8672" width="23" height="4"/>
	<rect x="192.1719" y="22.1172" width="23" height="4"/>
	<rect x="50.1719" y="13.3096" width="44" height="4"/>
	<rect x="50.1719" y="22.8096" width="27.0898" height="4"/>
	<polygon points="144.7617,57.5347 144.7617,55.5337 125.0752,55.5337 118.6748,41.1274 116.8486,41.9395 116.8467,41.9395 
		123.7754,57.5347 	"/>
	<polygon points="182.9209,40.3667 198.2383,40.3667 204.7803,29.3779 203.0645,28.3564 203.0615,28.354 197.1025,38.3667 
		182.9209,38.3667 	"/>
	<rect x="210.4277" y="51.1172" width="23" height="4"/>
	<polygon points="223.0361,58.3784 221.3184,57.3569 221.3184,57.3545 215.3565,67.3672 193.9209,67.3672 193.9209,69.3672 
		216.4941,69.3672 	"/>
	<rect x="204.0947" y="108.0332" width="23" height="4"/>
	<polygon points="187.5879,95.7827 209.0254,95.7827 214.9863,105.7944 216.7031,104.7715 210.1621,93.7822 187.5879,93.7822 	"/>
	<rect x="112.2549" y="127.6162" width="23" height="4"/>
	<polygon points="130.3213,115.3662 151.7617,115.3662 151.7617,113.3657 129.1865,113.3657 122.6465,124.355 124.3623,125.3789 
		124.3623,125.3765 	"/>
</g>
</svg>
